<svg xmlns="http://www.w3.org/2000/svg" xmlns:xlink="http://www.w3.org/1999/xlink" width="414" height="455" viewBox="0 0 414 455">
    <style>
        symbol {
            overflow: auto;
        }
    </style>

    <defs>
        <symbol id="s0"> <!-- dot -->
            <path d="M 4.171 0.171 C 3.960 0.171 3.769 0.093 3.593 -0.062 C 3.425 -0.226 3.343 -0.453 3.343 -0.734 C 3.343 -1.035 3.425 -1.257 3.593 -1.406 C 3.769 -1.562 3.960 -1.640 4.171 -1.640 C 4.390 -1.640 4.582 -1.562 4.75 -1.406 C 4.925 -1.257 5.015 -1.035 5.015 -0.734 C 5.015 -0.453 4.925 -0.226 4.75 -0.062 C 4.582 0.093 4.390 0.171 4.171 0.171 Z M 4.171 0.171"/>
        </symbol>
        <symbol id="s1"> <!-- single quote -->
            <path d="M 3.921 -5.296 L 3.640 -8.343 L 3.656 -9.578 L 4.703 -9.578 L 4.703 -8.343 L 4.421 -5.296 Z M 3.921 -5.296"/>
        </symbol>
        <symbol id="s2"> <!-- dash -->
            <path d="M 1.328 -4.328 L 1.328 -4.859 L 7.031 -4.859 L 7.031 -4.328 Z M 1.328 -4.328"/>
        </symbol>
        <symbol id="s3"> <!-- backslash -->
            <path d="M 6.140 2.234 L 1.593 -9.890 L 2.218 -9.890 L 6.765 2.234 Z M 6.140 2.234"/>
        </symbol>
        <symbol id="s4"> <!-- tilde -->
            <path d="M 5.421 -3.703 C 5.148 -3.703 4.906 -3.765 4.687 -3.890 C 4.468 -4.023 4.257 -4.171 4.062 -4.328 C 3.863 -4.484 3.671 -4.625 3.484 -4.75 C 3.296 -4.882 3.101 -4.953 2.906 -4.953 C 2.789 -4.953 2.675 -4.937 2.562 -4.906 C 2.457 -4.882 2.351 -4.828 2.25 -4.734 C 2.156 -4.648 2.062 -4.523 1.968 -4.359 C 1.882 -4.203 1.796 -3.988 1.703 -3.718 L 1.265 -3.890 C 1.472 -4.503 1.722 -4.921 2.015 -5.140 C 2.316 -5.367 2.625 -5.484 2.937 -5.484 C 3.195 -5.484 3.437 -5.414 3.656 -5.281 C 3.882 -5.156 4.093 -5.015 4.281 -4.859 C 4.476 -4.703 4.671 -4.554 4.859 -4.421 C 5.054 -4.296 5.25 -4.234 5.437 -4.234 C 5.562 -4.234 5.675 -4.242 5.781 -4.265 C 5.882 -4.296 5.984 -4.351 6.078 -4.437 C 6.179 -4.519 6.281 -4.640 6.375 -4.796 C 6.468 -4.960 6.562 -5.187 6.656 -5.468 L 7.093 -5.281 C 6.882 -4.675 6.628 -4.257 6.328 -4.031 C 6.035 -3.812 5.734 -3.703 5.421 -3.703 Z M 5.421 -3.703"/>
        </symbol>
        <symbol id="s5"> <!-- colon -->
            <path d="M 4.171 -5.093 C 3.960 -5.093 3.769 -5.171 3.593 -5.328 C 3.425 -5.492 3.343 -5.718 3.343 -6 C 3.343 -6.300 3.425 -6.523 3.593 -6.671 C 3.769 -6.828 3.960 -6.906 4.171 -6.906 C 4.390 -6.906 4.582 -6.828 4.75 -6.671 C 4.925 -6.523 5.015 -6.300 5.015 -6 C 5.015 -5.718 4.925 -5.492 4.75 -5.328 C 4.582 -5.171 4.390 -5.093 4.171 -5.093 Z M 4.171 0.171 C 3.960 0.171 3.769 0.093 3.593 -0.062 C 3.425 -0.226 3.343 -0.453 3.343 -0.734 C 3.343 -1.035 3.425 -1.257 3.593 -1.406 C 3.769 -1.562 3.960 -1.640 4.171 -1.640 C 4.390 -1.640 4.582 -1.562 4.75 -1.406 C 4.925 -1.257 5.015 -1.035 5.015 -0.734 C 5.015 -0.453 4.925 -0.226 4.75 -0.062 C 4.582 0.093 4.390 0.171 4.171 0.171 Z M 4.171 0.171"/>
        </symbol>
        <symbol id="s6"> <!-- dash2 -->
            <path d="M 0.828 1.734 L 0.828 1.093 L 7.515 1.093 L 7.515 1.734 Z M 0.828 1.734"/>
        </symbol>
        <symbol id="s7"> <!-- left square bracket -->
            <path d="M 3.343 2.109 L 3.343 -9.859 L 7.031 -9.859 L 7.031 -9.453 L 3.890 -9.453 L 3.890 1.718 L 7.031 1.718 L 7.031 2.109 Z M 3.343 2.109"/>
        </symbol>
        <symbol id="s8"> <!-- right square bracket -->
            <path d="M 1.328 2.109 L 1.328 1.718 L 4.468 1.718 L 4.468 -9.453 L 1.328 -9.453 L 1.328 -9.859 L 5.015 -9.859 L 5.015 2.109 Z M 1.328 2.109"/>
        </symbol>
        <symbol id="s9"> <!-- slash -->
            <path d="M 1.593 2.234 L 6.140 -9.890 L 6.765 -9.890 L 2.218 2.234 Z M 1.593 2.234"/>
        </symbol>
        <symbol id="s10"> <!-- O -->
            <path d="M 4.171 0.171 C 3.671 0.171 3.210 0.062 2.796 -0.156 C 2.378 -0.382 2.015 -0.707 1.703 -1.125 C 1.398 -1.539 1.164 -2.039 1 -2.625 C 0.832 -3.218 0.75 -3.882 0.75 -4.625 C 0.75 -5.343 0.832 -5.992 1 -6.578 C 1.164 -7.171 1.398 -7.671 1.703 -8.078 C 2.015 -8.484 2.378 -8.796 2.796 -9.015 C 3.210 -9.234 3.671 -9.343 4.171 -9.343 C 4.671 -9.343 5.128 -9.234 5.546 -9.015 C 5.972 -8.796 6.335 -8.484 6.640 -8.078 C 6.941 -7.671 7.175 -7.171 7.343 -6.578 C 7.507 -5.992 7.593 -5.343 7.593 -4.625 C 7.593 -3.882 7.507 -3.218 7.343 -2.625 C 7.175 -2.039 6.941 -1.539 6.640 -1.125 C 6.335 -0.707 5.972 -0.382 5.546 -0.156 C 5.128 0.062 4.671 0.171 4.171 0.171 Z M 4.171 -0.421 C 4.585 -0.421 4.960 -0.519 5.296 -0.718 C 5.640 -0.914 5.929 -1.195 6.171 -1.562 C 6.410 -1.925 6.597 -2.363 6.734 -2.875 C 6.867 -3.394 6.937 -3.976 6.937 -4.625 C 6.937 -5.257 6.867 -5.832 6.734 -6.343 C 6.597 -6.851 6.410 -7.285 6.171 -7.640 C 5.929 -8.003 5.640 -8.281 5.296 -8.468 C 4.960 -8.656 4.585 -8.75 4.171 -8.75 C 3.765 -8.75 3.390 -8.656 3.046 -8.468 C 2.710 -8.281 2.425 -8.003 2.187 -7.640 C 1.945 -7.285 1.757 -6.851 1.625 -6.343 C 1.488 -5.832 1.421 -5.257 1.421 -4.625 C 1.421 -3.976 1.488 -3.394 1.625 -2.875 C 1.757 -2.363 1.945 -1.925 2.187 -1.562 C 2.425 -1.195 2.710 -0.914 3.046 -0.718 C 3.390 -0.519 3.765 -0.421 4.171 -0.421 Z M 4.171 -0.421"/>
        </symbol>
        <symbol id="s11"> <!-- right triangle bracket -->
            <path d="M 1.562 -0.812 L 1.562 -1.468 L 6.046 -4.593 L 6.046 -4.656 L 1.562 -7.765 L 1.562 -8.437 L 6.640 -4.906 L 6.640 -4.343 Z M 1.562 -0.812"/>
        </symbol>
        <symbol id="s12"> <!-- Ñaret -->
            <path d="M 1.75 -4.031 L 3.859 -9.328 L 4.5 -9.328 L 6.593 -4.031 L 6 -4.031 L 4.921 -6.859 L 4.203 -8.718 L 4.156 -8.718 L 3.437 -6.859 L 2.359 -4.031 Z M 1.75 -4.031"/>
        </symbol>
        <symbol id="s13"> <!-- comma -->
            <path d="M 3.078 2.937 L 2.859 2.484 C 3.410 2.210 3.828 1.875 4.109 1.468 C 4.398 1.070 4.554 0.566 4.578 -0.046 C 4.460 -0.015 4.359 0 4.265 0 C 4.015 0 3.812 -0.066 3.656 -0.203 C 3.5 -0.335 3.421 -0.546 3.421 -0.828 C 3.421 -1.109 3.503 -1.316 3.671 -1.453 C 3.847 -1.585 4.046 -1.656 4.265 -1.656 C 4.585 -1.656 4.828 -1.523 4.984 -1.265 C 5.148 -1.015 5.234 -0.671 5.234 -0.234 C 5.234 0.554 5.035 1.210 4.640 1.734 C 4.242 2.253 3.722 2.656 3.078 2.937 Z M 3.078 2.937"/>
        </symbol>
        <symbol id="s14"> <!-- hash -->
            <path d="M 4.703 0 L 5.062 -2.984 L 3 -2.984 L 2.625 0 L 2.140 0 L 2.5 -2.984 L 1.343 -2.984 L 1.343 -3.484 L 2.578 -3.484 L 2.875 -5.843 L 1.609 -5.843 L 1.609 -6.343 L 2.921 -6.343 L 3.25 -9.046 L 3.734 -9.046 L 3.390 -6.343 L 5.484 -6.343 L 5.812 -9.046 L 6.312 -9.046 L 5.968 -6.343 L 7.093 -6.343 L 7.093 -5.843 L 5.921 -5.843 L 5.625 -3.484 L 6.812 -3.484 L 6.812 -2.984 L 5.562 -2.984 L 5.187 0 Z M 5.140 -3.484 L 5.421 -5.843 L 3.343 -5.843 L 3.046 -3.484 Z M 5.140 -3.484"/>
        </symbol>
        <symbol id="s15"> <!-- vbar -->
            <path d="M 3.890 3.484 L 3.890 -10.437 L 4.453 -10.437 L 4.453 3.484 Z M 3.890 3.484"/>
        </symbol>
        <symbol id="s16"> <!-- star -->
            <path d="M 1.234 -0.859 L 1.031 -1 L 1.843 -2.187 L 0.671 -2.687 L 0.75 -2.906 L 1.937 -2.468 L 1.984 -3.828 L 2.203 -3.828 L 2.25 -2.468 L 3.437 -2.906 L 3.515 -2.687 L 2.343 -2.187 L 3.156 -1 L 2.953 -0.859 L 2.093 -2.031 Z M 1.234 -0.859"/>
        </symbol>
    </defs>

    <rect fill="#0f0f23" width="100%" height="100%"/>

    <g fill="#ccf">
        <use href="#s0" x="120.925" y="27.618"/>
        <use href="#s0" x="129.136" y="27.618"/>
        <use href="#s0" x="137.347" y="27.618"/>
        <use href="#s0" x="145.558" y="27.618"/>
        <use href="#s0" x="153.769" y="27.618"/>
        <use href="#s0" x="161.980" y="27.618"/>
        <use href="#s0" x="170.191" y="27.618"/>
        <use href="#s0" x="178.402" y="27.618"/>
        <use href="#s0" x="186.613" y="27.618"/>
        <use href="#s0" x="194.824" y="27.618"/>
        <use href="#s0" x="211.246" y="27.618"/>
        <use href="#s0" x="219.457" y="27.618"/>
        <use href="#s0" x="227.668" y="27.618"/>
        <use href="#s0" x="235.879" y="27.618"/>
        <use href="#s0" x="244.090" y="27.618"/>
        <use href="#s0" x="252.301" y="27.618"/>
        <use href="#s0" x="260.512" y="27.618"/>
        <use href="#s0" x="268.723" y="27.618"/>
        <use href="#s0" x="276.934" y="27.618"/>
        <use href="#s0" x="285.145" y="27.618"/>
        <use href="#s0" x="30.604" y="44.787"/>
        <use href="#s0" x="38.815" y="44.787"/>
        <use href="#s0" x="47.026" y="44.787"/>
        <use href="#s0" x="55.237" y="44.787"/>
        <use href="#s0" x="63.448" y="44.787"/>
        <use href="#s1" x="71.659" y="44.787"/>
        <use href="#s1" x="79.870" y="44.787"/>
        <use href="#s1" x="88.081" y="44.787"/>
        <use href="#s1" x="96.292" y="44.787"/>
        <use href="#s1" x="104.503" y="44.787"/>
        <use href="#s1" x="112.714" y="44.787"/>
        <use href="#s1" x="293.356" y="44.787"/>
        <use href="#s1" x="301.567" y="44.787"/>
        <use href="#s1" x="309.778" y="44.787"/>
        <use href="#s1" x="317.989" y="44.787"/>
        <use href="#s1" x="326.200" y="44.787"/>
        <use href="#s1" x="334.411" y="44.787"/>
        <use href="#s0" x="342.622" y="44.787"/>
        <use href="#s0" x="350.833" y="44.787"/>
        <use href="#s0" x="359.044" y="44.787"/>
        <use href="#s0" x="367.255" y="44.787"/>
        <use href="#s0" x="375.466" y="44.787"/>
        <use href="#s1" x="5.971" y="61.955"/>
        <use href="#s1" x="14.182" y="61.955"/>
        <use href="#s1" x="22.393" y="61.955"/>
        <use href="#s1" x="383.677" y="61.955"/>
        <use href="#s1" x="391.888" y="61.955"/>
        <use href="#s1" x="400.099" y="61.955"/>        
    </g>

    <g fill="#fff">
        <use href="#s0" x="129.136" y="44.787"/>
        <use href="#s1" x="137.347" y="44.787"/>
        <use href="#s2" x="161.980" y="44.787"/>
        <use href="#s2" x="186.613" y="44.787"/>
        <use href="#s2" x="219.457" y="44.787"/>
        <use href="#s0" x="235.879" y="44.787"/>
        <use href="#s1" x="244.090" y="44.787"/>
        <use href="#s1" x="252.301" y="44.787"/>
        <use href="#s1" x="129.136" y="61.955"/>
        <use href="#s0" x="137.347" y="61.955"/>
        <use href="#s1" x="145.558" y="61.955"/>
        <use href="#s0" x="153.769" y="61.955"/>
        <use href="#s2" x="170.191" y="61.955"/>
        <use href="#s2" x="203.035" y="61.955"/>
        <use href="#s2" x="235.879" y="61.955"/>
        <use href="#s1" x="244.090" y="61.955"/>
        <use href="#s1" x="252.301" y="61.955"/>
        <use href="#s5" x="260.512" y="61.955"/>
        <use href="#s1" x="161.980" y="79.124"/>
        <use href="#s1" x="170.191" y="79.124"/>
        <use href="#s0" x="178.402" y="79.124"/>
        <use href="#s0" x="186.613" y="79.124"/>
        <use href="#s1" x="194.824" y="79.124"/>
        <use href="#s1" x="203.035" y="79.124"/>
        <use href="#s1" x="211.246" y="79.124"/>
        <use href="#s0" x="244.090" y="79.124"/>
        <use href="#s1" x="252.301" y="79.124"/>
        <use href="#s1" x="227.668" y="96.292"/>
        <use href="#s1" x="235.879" y="96.292"/>
        <use href="#s12" x="219.457" y="199.303"/>
        <use href="#s12" x="211.246" y="216.471"/>
        <use href="#s12" x="400.099" y="216.471"/>
        <use href="#s12" x="391.888" y="250.808"/>
        <use href="#s12" x="383.677" y="267.976"/>
        <use href="#s12" x="400.099" y="267.976"/>
        <use href="#s12" x="391.888" y="285.145"/>
        <use href="#s12" x="400.099" y="302.313"/>
    </g>

    <g fill="#ccc">
        <use href="#s3" x="211.246" y="44.787"/>
        <use href="#s3" x="219.457" y="61.955"/>
        <use href="#s6" x="219.457" y="79.124"/>
        <use href="#s7" x="227.668" y="79.124"/>
        <use href="#s8" x="235.879" y="79.124"/>
        <use href="#s6" x="178.402" y="96.292"/>
        <use href="#s6" x="186.613" y="96.292"/>
        <use href="#s6" x="194.824" y="96.292"/>
        <use href="#s6" x="203.035" y="96.292"/>
        <use href="#s9" x="211.246" y="96.292"/>
        <use href="#s6" x="129.136" y="113.460"/>
        <use href="#s6" x="137.347" y="113.460"/>
        <use href="#s6" x="145.558" y="113.460"/>
        <use href="#s6" x="153.769" y="113.460"/>
        <use href="#s6" x="161.980" y="113.460"/>
        <use href="#s9" x="170.191" y="113.460"/>
        <use href="#s7" x="112.714" y="130.629"/>
        <use href="#s8" x="120.925" y="130.629"/>
        <use href="#s3" x="129.136" y="147.797"/>
        <use href="#s3" x="137.347" y="164.966"/>
        <use href="#s6" x="194.824" y="164.966"/>
        <use href="#s6" x="203.035" y="164.966"/>
        <use href="#s6" x="211.246" y="164.966"/>
        <use href="#s6" x="219.457" y="164.966"/>
        <use href="#s3" x="145.558" y="182.134"/>
        <use href="#s6" x="153.769" y="182.134"/>
        <use href="#s6" x="161.980" y="182.134"/>
        <use href="#s6" x="170.191" y="182.134"/>
        <use href="#s6" x="178.402" y="182.134"/>
        <use href="#s9" x="186.613" y="182.134"/>
        <use href="#s3" x="227.668" y="182.134"/>
        <use href="#s6" x="129.136" y="199.303"/>
        <use href="#s6" x="137.347" y="199.303"/>
        <use href="#s9" x="145.558" y="199.303"/>
        <use href="#s3" x="153.769" y="199.303"/>
        <use href="#s7" x="235.879" y="199.303"/>
        <use href="#s8" x="244.090" y="199.303"/>
        <use href="#s6" x="79.870" y="216.471"/>
        <use href="#s6" x="88.081" y="216.471"/>
        <use href="#s6" x="96.292" y="216.471"/>
        <use href="#s6" x="104.503" y="216.471"/>
        <use href="#s6" x="112.714" y="216.471"/>
        <use href="#s9" x="120.925" y="216.471"/>
        <use href="#s3" x="161.980" y="216.471"/>
        <use href="#s3" x="252.301" y="216.471"/>
        <use href="#s9" x="71.659" y="233.640"/>
        <use href="#s3" x="170.191" y="233.640"/>
        <use href="#s3" x="260.512" y="233.640"/>
        <use href="#s6" x="268.723" y="233.640"/>
        <use href="#s6" x="276.934" y="233.640"/>
        <use href="#s6" x="285.145" y="233.640"/>
        <use href="#s6" x="293.356" y="233.640"/>
        <use href="#s6" x="301.567" y="233.640"/>
        <use href="#s6" x="309.778" y="233.640"/>
        <use href="#s6" x="317.989" y="233.640"/>
        <use href="#s7" x="55.237" y="250.808"/>
        <use href="#s8" x="63.448" y="250.808"/>
        <use href="#s3" x="178.402" y="250.808"/>
        <use href="#s3" x="326.200" y="250.808"/>
        <use href="#s3" x="63.448" y="267.976"/>
        <use href="#s3" x="186.613" y="267.976"/>
        <use href="#s3" x="334.411" y="267.976"/>
        <use href="#s3" x="71.659" y="285.145"/>
        <use href="#s3" x="194.824" y="285.145"/>
        <use href="#s7" x="342.622" y="285.145"/>
        <use href="#s8" x="350.833" y="285.145"/>
        <use href="#s3" x="79.870" y="302.313"/>
        <use href="#s3" x="203.035" y="302.313"/>
        <use href="#s6" x="326.200" y="302.313"/>
        <use href="#s9" x="334.411" y="302.313"/>
        <use href="#s3" x="88.081" y="319.482"/>
        <use href="#s7" x="203.035" y="319.482"/>
        <use href="#s8" x="211.246" y="319.482"/>
        <use href="#s9" x="317.989" y="319.482"/>
        <use href="#s3" x="96.292" y="336.650"/>
        <use href="#s3" x="219.457" y="336.650"/>
        <use href="#s6" x="227.668" y="336.650"/>
        <use href="#s6" x="235.879" y="336.650"/>
        <use href="#s9" x="309.778" y="336.650"/>
        <use href="#s7" x="104.503" y="353.819"/>
        <use href="#s8" x="112.714" y="353.819"/>
        <use href="#s3" x="244.090" y="353.819"/>
        <use href="#s6" x="252.301" y="353.819"/>
        <use href="#s6" x="260.512" y="353.819"/>
        <use href="#s9" x="301.567" y="353.819"/>
        <use href="#s3" x="120.925" y="370.987"/>
        <use href="#s6" x="129.136" y="370.987"/>
        <use href="#s6" x="137.347" y="370.987"/>
        <use href="#s6" x="145.558" y="370.987"/>
        <use href="#s6" x="153.769" y="370.987"/>
        <use href="#s6" x="161.980" y="370.987"/>
        <use href="#s6" x="170.191" y="370.987"/>
        <use href="#s3" x="268.723" y="370.987"/>
        <use href="#s6" x="276.934" y="370.987"/>
        <use href="#s6" x="285.145" y="370.987"/>
        <use href="#s9" x="293.356" y="370.987"/>
        <use href="#s3" x="178.402" y="388.156"/>
        <use href="#s6" x="186.613" y="388.156"/>
        <use href="#s6" x="194.824" y="388.156"/>
        <use href="#s6" x="203.035" y="388.156"/>
        <use href="#s6" x="211.246" y="388.156"/>
        <use href="#s6" x="219.457" y="388.156"/>
        <use href="#s6" x="227.668" y="388.156"/>
        <use href="#s3" x="235.879" y="405.324"/>
        <use href="#s6" x="244.090" y="405.324"/>
        <use href="#s6" x="252.301" y="405.324"/>
        <use href="#s6" x="260.512" y="405.324"/>
        <use href="#s6" x="268.723" y="405.324"/>
        <use href="#s3" x="276.934" y="422.492"/>
        <use href="#s6" x="285.145" y="422.492"/>
        <use href="#s6" x="293.356" y="422.492"/>
        <use href="#s6" x="301.567" y="422.492"/>
        <use href="#s7" x="309.778" y="439.661"/>
        <use href="#s8" x="317.989" y="439.661"/>
    </g>

    <g fill="#339">
        <use href="#s4" x="260.512" y="44.787"/>
        <use href="#s4" x="276.934" y="44.787"/>
        <use href="#s4" x="38.815" y="61.955"/>
        <use href="#s4" x="55.237" y="61.955"/>
        <use href="#s4" x="71.659" y="61.955"/>
        <use href="#s4" x="88.081" y="61.955"/>
        <use href="#s4" x="112.714" y="61.955"/>
        <use href="#s4" x="285.145" y="61.955"/>
        <use href="#s4" x="301.567" y="61.955"/>
        <use href="#s4" x="334.411" y="61.955"/>
        <use href="#s4" x="359.044" y="61.955"/>
        <use href="#s4" x="14.182" y="79.124"/>
        <use href="#s4" x="47.026" y="79.124"/>
        <use href="#s4" x="71.659" y="79.124"/>
        <use href="#s4" x="104.503" y="79.124"/>
        <use href="#s4" x="120.925" y="79.124"/>
        <use href="#s4" x="145.558" y="79.124"/>
        <use href="#s4" x="276.934" y="79.124"/>
        <use href="#s4" x="317.989" y="79.124"/>
        <use href="#s4" x="350.833" y="79.124"/>
        <use href="#s4" x="367.255" y="79.124"/>
        <use href="#s4" x="391.888" y="79.124"/>
        <use href="#s4" x="5.971" y="96.292"/>
        <use href="#s4" x="38.815" y="96.292"/>
        <use href="#s4" x="55.237" y="96.292"/>
        <use href="#s4" x="112.714" y="96.292"/>
        <use href="#s4" x="137.347" y="96.292"/>
        <use href="#s4" x="161.980" y="96.292"/>
        <use href="#s4" x="260.512" y="96.292"/>
        <use href="#s4" x="285.145" y="96.292"/>
        <use href="#s4" x="309.778" y="96.292"/>
        <use href="#s4" x="334.411" y="96.292"/>
        <use href="#s4" x="359.044" y="96.292"/>
        <use href="#s4" x="400.099" y="96.292"/>
        <use href="#s4" x="22.393" y="113.460"/>
        <use href="#s4" x="63.448" y="113.460"/>
        <use href="#s4" x="186.613" y="113.460"/>
        <use href="#s4" x="219.457" y="113.460"/>
        <use href="#s4" x="244.090" y="113.460"/>
        <use href="#s4" x="268.723" y="113.460"/>
        <use href="#s4" x="326.200" y="113.460"/>
        <use href="#s4" x="14.182" y="130.629"/>
        <use href="#s4" x="38.815" y="130.629"/>
        <use href="#s4" x="55.237" y="130.629"/>
        <use href="#s4" x="88.081" y="130.629"/>
        <use href="#s4" x="170.191" y="130.629"/>
        <use href="#s4" x="203.035" y="130.629"/>
        <use href="#s4" x="260.512" y="130.629"/>
        <use href="#s4" x="391.888" y="130.629"/>
        <use href="#s4" x="63.448" y="147.797"/>
        <use href="#s4" x="145.558" y="147.797"/>
        <use href="#s4" x="219.457" y="147.797"/>
        <use href="#s4" x="244.090" y="147.797"/>
        <use href="#s4" x="276.934" y="147.797"/>
        <use href="#s4" x="301.567" y="147.797"/>
        <use href="#s4" x="359.044" y="147.797"/>
        <use href="#s4" x="400.099" y="147.797"/>
        <use href="#s4" x="14.182" y="164.966"/>
        <use href="#s4" x="47.026" y="164.966"/>
        <use href="#s4" x="104.503" y="164.966"/>
        <use href="#s4" x="161.980" y="164.966"/>
        <use href="#s4" x="268.723" y="164.966"/>
        <use href="#s4" x="326.200" y="164.966"/>
        <use href="#s4" x="383.677" y="164.966"/>
        <use href="#s4" x="63.448" y="182.134"/>
        <use href="#s4" x="129.136" y="182.134"/>
        <use href="#s4" x="293.356" y="182.134"/>
        <use href="#s4" x="359.044" y="182.134"/>
        <use href="#s4" x="38.815" y="199.303"/>
        <use href="#s4" x="104.503" y="199.303"/>
        <use href="#s4" x="170.191" y="199.303"/>
        <use href="#s4" x="317.989" y="199.303"/>
        <use href="#s4" x="342.622" y="199.303"/>
        <use href="#s4" x="71.659" y="216.471"/>
        <use href="#s4" x="129.136" y="216.471"/>
        <use href="#s4" x="276.934" y="216.471"/>
        <use href="#s4" x="104.503" y="233.640"/>
        <use href="#s4" x="161.980" y="233.640"/>
        <use href="#s4" x="326.200" y="233.640"/>
        <use href="#s4" x="194.824" y="250.808"/>
        <use href="#s4" x="260.512" y="250.808"/>
        <use href="#s4" x="293.356" y="250.808"/>
        <use href="#s4" x="120.925" y="267.976"/>
        <use href="#s4" x="161.980" y="267.976"/>
        <use href="#s4" x="219.457" y="267.976"/>
        <use href="#s4" x="293.356" y="285.145"/>
        <use href="#s4" x="178.402" y="302.313"/>
        <use href="#s4" x="260.512" y="302.313"/>
        <use href="#s4" x="145.558" y="319.482"/>
        <use href="#s4" x="334.411" y="319.482"/>
        <use href="#s4" x="260.512" y="336.650"/>
        <use href="#s4" x="170.191" y="353.819"/>
        <use href="#s4" x="219.457" y="353.819"/>
        <use href="#s4" x="309.778" y="353.819"/>
        <use href="#s4" x="367.255" y="353.819"/>
        <use href="#s4" x="137.347" y="388.156"/>
        <use href="#s4" x="268.723" y="388.156"/>
        <use href="#s4" x="350.833" y="388.156"/>
        <use href="#s4" x="391.888" y="388.156"/>
        <use href="#s4" x="178.402" y="405.324"/>
        <use href="#s4" x="227.668" y="405.324"/>
        <use href="#s4" x="96.292" y="422.492"/>
        <use href="#s4" x="400.099" y="422.492"/>
        <use href="#s4" x="47.026" y="439.661"/>
        <use href="#s4" x="137.347" y="439.661"/>
        <use href="#s4" x="211.246" y="439.661"/>
        <use href="#s4" x="367.255" y="439.661"/>
    </g>

    <g fill="#90f">
        <use href="#s6" x="309.778" y="113.460"/>
        <use href="#s6" x="342.622" y="113.460"/>
        <use href="#s10" x="375.466" y="113.460"/>
        <use href="#s11" x="383.677" y="113.460"/>
        <use href="#s3" x="285.145" y="130.629"/>
        <use href="#s9" x="301.567" y="130.629"/>
        <use href="#s3" x="317.989" y="130.629"/>
        <use href="#s9" x="334.411" y="130.629"/>
        <use href="#s3" x="350.833" y="130.629"/>
        <use href="#s9" x="367.255" y="130.629"/>
    </g>

    <g fill="#fc9">
        <use href="#s4" x="30.604" y="319.482"/>
        <use href="#s4" x="47.026" y="319.482"/>
        <use href="#s4" x="5.971" y="336.650"/>
        <use href="#s4" x="22.393" y="336.650"/>
        <use href="#s4" x="38.815" y="336.650"/>
        <use href="#s4" x="55.237" y="336.650"/>
        <use href="#s4" x="14.182" y="353.819"/>
        <use href="#s4" x="30.604" y="353.819"/>
        <use href="#s4" x="47.026" y="353.819"/>
        <use href="#s4" x="63.448" y="353.819"/>
        <use href="#s4" x="79.870" y="353.819"/>
        <use href="#s4" x="5.971" y="370.987"/>
        <use href="#s4" x="22.393" y="370.987"/>
        <use href="#s4" x="38.815" y="370.987"/>
        <use href="#s4" x="55.237" y="370.987"/>
        <use href="#s4" x="71.659" y="370.987"/>
        <use href="#s4" x="14.182" y="388.156"/>
        <use href="#s4" x="30.604" y="388.156"/>
        <use href="#s4" x="47.026" y="388.156"/>
    </g>

    <g fill="#0c0">
        <use href="#s0" x="79.870" y="96.292"/>
        <use href="#s1" x="88.081" y="96.292"/>
        <use href="#s0" x="96.292" y="96.292"/>
        <use href="#s1" x="79.870" y="113.460"/>
        <use href="#s1" x="88.081" y="113.460"/>
        <use href="#s0" x="112.714" y="113.460"/>
        <use href="#s0" x="120.925" y="113.460"/>
        <use href="#s5" x="104.503" y="130.629"/>
        <use href="#s1" x="129.136" y="130.629"/>
        <use href="#s0" x="137.347" y="130.629"/>
        <use href="#s1" x="112.714" y="147.797"/>
        <use href="#s0" x="120.925" y="147.797"/>
        <use href="#s0" x="203.035" y="182.134"/>
        <use href="#s1" x="211.246" y="182.134"/>
        <use href="#s1" x="219.457" y="182.134"/>
        <use href="#s1" x="235.879" y="182.134"/>
        <use href="#s0" x="244.090" y="182.134"/>
        <use href="#s0" x="252.301" y="182.134"/>
        <use href="#s0" x="400.099" y="182.134"/>
        <use href="#s0" x="203.035" y="199.303"/>
        <use href="#s1" x="211.246" y="199.303"/>
        <use href="#s0" x="252.301" y="199.303"/>
        <use href="#s1" x="260.512" y="199.303"/>
        <use href="#s0" x="367.255" y="199.303"/>
        <use href="#s0" x="375.466" y="199.303"/>
        <use href="#s1" x="383.677" y="199.303"/>
        <use href="#s1" x="391.888" y="199.303"/>
        <use href="#s0" x="5.971" y="216.471"/>
        <use href="#s0" x="14.182" y="216.471"/>
        <use href="#s0" x="22.393" y="216.471"/>
        <use href="#s5" x="203.035" y="216.471"/>
        <use href="#s13" x="227.668" y="216.471"/>
        <use href="#s5" x="244.090" y="216.471"/>
        <use href="#s5" x="342.622" y="216.471"/>
        <use href="#s1" x="350.833" y="216.471"/>
        <use href="#s1" x="359.044" y="216.471"/>
        <use href="#s13" x="383.677" y="216.471"/>
        <use href="#s14" x="5.971" y="233.640"/>
        <use href="#s14" x="14.182" y="233.640"/>
        <use href="#s14" x="22.393" y="233.640"/>
        <use href="#s5" x="30.604" y="233.640"/>
        <use href="#s0" x="47.026" y="233.640"/>
        <use href="#s0" x="55.237" y="233.640"/>
        <use href="#s0" x="63.448" y="233.640"/>
        <use href="#s1" x="211.246" y="233.640"/>
        <use href="#s0" x="219.457" y="233.640"/>
        <use href="#s0" x="227.668" y="233.640"/>
        <use href="#s1" x="235.879" y="233.640"/>
        <use href="#s1" x="342.622" y="233.640"/>
        <use href="#s0" x="350.833" y="233.640"/>
        <use href="#s13" x="367.255" y="233.640"/>
        <use href="#s0" x="5.971" y="250.808"/>
        <use href="#s1" x="14.182" y="250.808"/>
        <use href="#s1" x="22.393" y="250.808"/>
        <use href="#s0" x="38.815" y="250.808"/>
        <use href="#s1" x="47.026" y="250.808"/>
        <use href="#s1" x="71.659" y="250.808"/>
        <use href="#s0" x="79.870" y="250.808"/>
        <use href="#s5" x="350.833" y="250.808"/>
        <use href="#s13" x="375.466" y="250.808"/>
        <use href="#s1" x="5.971" y="267.976"/>
        <use href="#s0" x="14.182" y="267.976"/>
        <use href="#s0" x="22.393" y="267.976"/>
        <use href="#s0" x="30.604" y="267.976"/>
        <use href="#s1" x="38.815" y="267.976"/>
        <use href="#s14" x="47.026" y="267.976"/>
        <use href="#s14" x="55.237" y="267.976"/>
        <use href="#s14" x="71.659" y="267.976"/>
        <use href="#s14" x="79.870" y="267.976"/>
        <use href="#s1" x="88.081" y="267.976"/>
        <use href="#s0" x="96.292" y="267.976"/>
        <use href="#s0" x="326.200" y="267.976"/>
        <use href="#s1" x="342.622" y="267.976"/>
        <use href="#s13" x="359.044" y="267.976"/>
        <use href="#s14" x="5.971" y="285.145"/>
        <use href="#s14" x="14.182" y="285.145"/>
        <use href="#s14" x="22.393" y="285.145"/>
        <use href="#s14" x="30.604" y="285.145"/>
        <use href="#s14" x="38.815" y="285.145"/>
        <use href="#s13" x="55.237" y="285.145"/>
        <use href="#s14" x="63.448" y="285.145"/>
        <use href="#s14" x="79.870" y="285.145"/>
        <use href="#s0" x="88.081" y="285.145"/>
        <use href="#s1" x="96.292" y="285.145"/>
        <use href="#s0" x="227.668" y="285.145"/>
        <use href="#s1" x="326.200" y="285.145"/>
        <use href="#s0" x="334.411" y="285.145"/>
        <use href="#s13" x="375.466" y="285.145"/>
        <use href="#s14" x="5.971" y="302.313"/>
        <use href="#s13" x="14.182" y="302.313"/>
        <use href="#s13" x="71.659" y="302.313"/>
        <use href="#s1" x="88.081" y="302.313"/>
        <use href="#s0" x="96.292" y="302.313"/>
        <use href="#s1" x="211.246" y="302.313"/>
        <use href="#s1" x="219.457" y="302.313"/>
        <use href="#s13" x="227.668" y="302.313"/>
        <use href="#s5" x="235.879" y="302.313"/>
        <use href="#s1" x="342.622" y="302.313"/>
        <use href="#s0" x="350.833" y="302.313"/>
        <use href="#s0" x="359.044" y="302.313"/>
        <use href="#s13" x="383.677" y="302.313"/>
        <use href="#s13" x="79.870" y="319.482"/>
        <use href="#s13" x="96.292" y="319.482"/>
        <use href="#s1" x="104.503" y="319.482"/>
        <use href="#s0" x="112.714" y="319.482"/>
        <use href="#s5" x="194.824" y="319.482"/>
        <use href="#s0" x="219.457" y="319.482"/>
        <use href="#s0" x="227.668" y="319.482"/>
        <use href="#s1" x="235.879" y="319.482"/>
        <use href="#s1" x="367.255" y="319.482"/>
        <use href="#s1" x="375.466" y="319.482"/>
        <use href="#s0" x="383.677" y="319.482"/>
        <use href="#s0" x="391.888" y="319.482"/>
        <use href="#s0" x="400.099" y="319.482"/>
        <use href="#s13" x="104.503" y="336.650"/>
        <use href="#s5" x="120.925" y="336.650"/>
        <use href="#s1" x="203.035" y="336.650"/>
        <use href="#s1" x="211.246" y="336.650"/>
        <use href="#s13" x="96.292" y="353.819"/>
        <use href="#s5" x="120.925" y="353.819"/>
        <use href="#s13" x="96.292" y="370.987"/>
        <use href="#s0" x="112.714" y="370.987"/>
        <use href="#s0" x="88.081" y="388.156"/>
        <use href="#s0" x="96.292" y="388.156"/>
        <use href="#s1" x="104.503" y="388.156"/>
        <use href="#s0" x="22.393" y="405.324"/>
        <use href="#s0" x="30.604" y="405.324"/>
        <use href="#s0" x="38.815" y="405.324"/>
        <use href="#s0" x="47.026" y="405.324"/>
        <use href="#s0" x="55.237" y="405.324"/>
        <use href="#s1" x="63.448" y="405.324"/>
        <use href="#s1" x="71.659" y="405.324"/>
        <use href="#s1" x="79.870" y="405.324"/>
        <use href="#s1" x="5.971" y="422.492"/>
        <use href="#s1" x="14.182" y="422.492"/>
        <use href="#s0" x="244.090" y="422.492"/>
        <use href="#s1" x="252.301" y="422.492"/>
        <use href="#s0" x="260.512" y="422.492"/>
        <use href="#s0" x="268.723" y="422.492"/>
        <use href="#s1" x="309.778" y="422.492"/>
        <use href="#s1" x="317.989" y="422.492"/>
        <use href="#s0" x="326.200" y="422.492"/>
        <use href="#s0" x="334.411" y="422.492"/>
        <use href="#s1" x="252.301" y="439.661"/>
        <use href="#s0" x="260.512" y="439.661"/>
        <use href="#s1" x="268.723" y="439.661"/>
        <use href="#s5" x="293.356" y="439.661"/>
        <use href="#s0" x="334.411" y="439.661"/>
        <use href="#s1" x="342.622" y="439.661"/>
    </g>
    
    <use fill="#f00" href="#s15" x="203.035" y="27.618"/>
    
    <use fill="#ff6" style="filter:drop-shadow(0px 0px 2.5pt rgba(255, 255, 102, 0.5)) drop-shadow(0px 0px 1.5pt #ff6) drop-shadow(0px 0px 1pt rgba(255, 255, 102, 0.5));transform-origin:top center;transform:scale(1.35)translate(0.1pt,-3pt)" href="#s16" x="204.714" y="16.832"/>
</svg>
