<svg xmlns="http://www.w3.org/2000/svg" width="414" height="455"><style>symbol{overflow:auto}</style><defs><symbol id="s0"><path d="M4.171.171a.854.854 0 0 1-.578-.233c-.168-.164-.25-.391-.25-.672 0-.301.082-.523.25-.672a.85.85 0 0 1 .578-.234c.219 0 .411.078.579.234.175.149.265.371.265.672 0 .281-.09.508-.265.672a.828.828 0 0 1-.579.233Zm0 0"/></symbol><symbol id="s1"><path d="M3.921-5.296 3.64-8.343l.016-1.235h1.047v1.235l-.282 3.047Zm0 0"/></symbol><symbol id="s2"><path d="M1.328-4.328v-.531h5.703v.531Zm0 0"/></symbol><symbol id="s3"><path d="M6.14 2.234 1.593-9.89h.625L6.765 2.234Zm0 0"/></symbol><symbol id="s4"><path d="M5.421-3.703c-.273 0-.515-.062-.734-.187a5.814 5.814 0 0 1-.625-.438 9.5 9.5 0 0 0-.578-.422 1.008 1.008 0 0 0-.578-.203c-.117 0-.231.016-.344.047a.678.678 0 0 0-.312.172 1.559 1.559 0 0 0-.282.375 4.272 4.272 0 0 0-.265.641l-.438-.172c.207-.613.457-1.031.75-1.25.301-.227.61-.344.922-.344.258 0 .5.07.719.203.226.125.437.266.625.422.195.156.39.305.578.438.195.125.391.187.578.187.125 0 .238-.008.344-.031a.776.776 0 0 0 .297-.172c.101-.082.203-.203.297-.359.093-.164.187-.391.281-.672l.437.187c-.211.606-.465 1.024-.765 1.25-.293.219-.594.328-.907.328Zm0 0"/></symbol><symbol id="s5"><path d="M4.171-5.093a.847.847 0 0 1-.578-.235c-.168-.164-.25-.39-.25-.672 0-.3.082-.523.25-.671a.847.847 0 0 1 .578-.235c.219 0 .411.078.579.235.175.148.265.371.265.671 0 .282-.09.508-.265.672a.821.821 0 0 1-.579.235Zm0 5.264a.854.854 0 0 1-.578-.233c-.168-.164-.25-.391-.25-.672 0-.301.082-.523.25-.672a.85.85 0 0 1 .578-.234c.219 0 .411.078.579.234.175.149.265.371.265.672 0 .281-.09.508-.265.672a.828.828 0 0 1-.579.233Zm0 0"/></symbol><symbol id="s6"><path d="M.828 1.734v-.641h6.687v.641Zm0 0"/></symbol><symbol id="s7"><path d="M3.343 2.109V-9.859h3.688v.406H3.89V1.718h3.141v.391Zm0 0"/></symbol><symbol id="s8"><path d="M1.328 2.109v-.391h3.14V-9.453h-3.14v-.406h3.687V2.109Zm0 0"/></symbol><symbol id="s9"><path d="M1.593 2.234 6.14-9.89h.625L2.218 2.234Zm0 0"/></symbol><symbol id="s10"><path d="M4.171.171c-.5 0-.961-.109-1.375-.327a3.362 3.362 0 0 1-1.093-.969c-.305-.414-.539-.914-.703-1.5-.168-.593-.25-1.257-.25-2 0-.718.082-1.367.25-1.953.164-.593.398-1.093.703-1.5a3.313 3.313 0 0 1 1.093-.937 2.902 2.902 0 0 1 1.375-.328c.5 0 .957.109 1.375.328.426.219.789.531 1.094.937.301.407.535.907.703 1.5.164.586.25 1.235.25 1.953 0 .743-.086 1.407-.25 2-.168.586-.402 1.086-.703 1.5a3.22 3.22 0 0 1-1.094.969 2.924 2.924 0 0 1-1.375.327Zm0-.592c.414 0 .789-.098 1.125-.297.344-.196.633-.477.875-.844a4.48 4.48 0 0 0 .563-1.313 7.045 7.045 0 0 0 .203-1.75c0-.632-.07-1.207-.203-1.718-.137-.508-.324-.942-.563-1.297a2.479 2.479 0 0 0-.875-.828 2.264 2.264 0 0 0-1.125-.282c-.406 0-.781.094-1.125.282a2.47 2.47 0 0 0-.859.828c-.242.355-.43.789-.562 1.297a6.652 6.652 0 0 0-.204 1.718c0 .649.067 1.231.204 1.75.132.512.32.95.562 1.313.238.367.523.648.859.844.344.199.719.297 1.125.297Zm0 0"/></symbol><symbol id="s11"><path d="M1.562-.812v-.656l4.484-3.125v-.063L1.562-7.765v-.672L6.64-4.906v.563Zm0 0"/></symbol><symbol id="s12"><path d="m1.75-4.031 2.109-5.297H4.5l2.093 5.297H6L4.921-6.859l-.718-1.859h-.047l-.719 1.859-1.078 2.828Zm0 0"/></symbol><symbol id="s13"><path d="m3.078 2.937-.219-.453c.551-.274.969-.609 1.25-1.016.289-.398.445-.902.469-1.514A1.227 1.227 0 0 1 4.265 0c-.25 0-.453-.066-.609-.203-.156-.132-.235-.343-.235-.625 0-.281.082-.488.25-.625a.972.972 0 0 1 .594-.203c.32 0 .563.133.719.391.164.25.25.594.25 1.031 0 .788-.199 1.444-.594 1.968a3.888 3.888 0 0 1-1.562 1.203Zm0 0"/></symbol><symbol id="s14"><path d="m4.703 0 .359-2.984H3L2.625 0H2.14l.36-2.984H1.343v-.5h1.235l.297-2.359H1.609v-.5h1.312l.329-2.703h.484L3.39-6.343h2.094l.328-2.703h.5l-.344 2.703h1.125v.5H5.921l-.296 2.359h1.187v.5h-1.25L5.187 0Zm.437-3.484.281-2.359H3.343l-.297 2.359Zm0 0"/></symbol><symbol id="s15"><path d="M3.89 3.484v-13.921h.563V3.484Zm0 0"/></symbol><symbol id="s16"><path d="M1.234-.859 1.031-1l.812-1.187-1.172-.5.079-.219 1.187.438.047-1.36h.219l.047 1.36 1.187-.438.078.219-1.172.5L3.156-1l-.203.141-.86-1.172Zm0 0"/></symbol></defs><rect width="100%" height="100%" fill="#0f0f23"/><g fill="#ccf"><use x="120.925" y="27.618" href="#s0"/><use x="129.136" y="27.618" href="#s0"/><use x="137.347" y="27.618" href="#s0"/><use x="145.558" y="27.618" href="#s0"/><use x="153.769" y="27.618" href="#s0"/><use x="161.98" y="27.618" href="#s0"/><use x="170.191" y="27.618" href="#s0"/><use x="178.402" y="27.618" href="#s0"/><use x="186.613" y="27.618" href="#s0"/><use x="194.824" y="27.618" href="#s0"/><use x="211.246" y="27.618" href="#s0"/><use x="219.457" y="27.618" href="#s0"/><use x="227.668" y="27.618" href="#s0"/><use x="235.879" y="27.618" href="#s0"/><use x="244.09" y="27.618" href="#s0"/><use x="252.301" y="27.618" href="#s0"/><use x="260.512" y="27.618" href="#s0"/><use x="268.723" y="27.618" href="#s0"/><use x="276.934" y="27.618" href="#s0"/><use x="285.145" y="27.618" href="#s0"/><use x="30.604" y="44.787" href="#s0"/><use x="38.815" y="44.787" href="#s0"/><use x="47.026" y="44.787" href="#s0"/><use x="55.237" y="44.787" href="#s0"/><use x="63.448" y="44.787" href="#s0"/><use x="71.659" y="44.787" href="#s1"/><use x="79.87" y="44.787" href="#s1"/><use x="88.081" y="44.787" href="#s1"/><use x="96.292" y="44.787" href="#s1"/><use x="104.503" y="44.787" href="#s1"/><use x="112.714" y="44.787" href="#s1"/><use x="293.356" y="44.787" href="#s1"/><use x="301.567" y="44.787" href="#s1"/><use x="309.778" y="44.787" href="#s1"/><use x="317.989" y="44.787" href="#s1"/><use x="326.2" y="44.787" href="#s1"/><use x="334.411" y="44.787" href="#s1"/><use x="342.622" y="44.787" href="#s0"/><use x="350.833" y="44.787" href="#s0"/><use x="359.044" y="44.787" href="#s0"/><use x="367.255" y="44.787" href="#s0"/><use x="375.466" y="44.787" href="#s0"/><use x="5.971" y="61.955" href="#s1"/><use x="14.182" y="61.955" href="#s1"/><use x="22.393" y="61.955" href="#s1"/><use x="383.677" y="61.955" href="#s1"/><use x="391.888" y="61.955" href="#s1"/><use x="400.099" y="61.955" href="#s1"/></g><g fill="#fff"><use x="129.136" y="44.787" href="#s0"/><use x="137.347" y="44.787" href="#s1"/><use x="161.98" y="44.787" href="#s2"/><use x="186.613" y="44.787" href="#s2"/><use x="219.457" y="44.787" href="#s2"/><use x="235.879" y="44.787" href="#s0"/><use x="244.09" y="44.787" href="#s1"/><use x="252.301" y="44.787" href="#s1"/><use x="129.136" y="61.955" href="#s1"/><use x="137.347" y="61.955" href="#s0"/><use x="145.558" y="61.955" href="#s1"/><use x="153.769" y="61.955" href="#s0"/><use x="170.191" y="61.955" href="#s2"/><use x="203.035" y="61.955" href="#s2"/><use x="235.879" y="61.955" href="#s2"/><use x="244.09" y="61.955" href="#s1"/><use x="252.301" y="61.955" href="#s1"/><use x="260.512" y="61.955" href="#s5"/><use x="161.98" y="79.124" href="#s1"/><use x="170.191" y="79.124" href="#s1"/><use x="178.402" y="79.124" href="#s0"/><use x="186.613" y="79.124" href="#s0"/><use x="194.824" y="79.124" href="#s1"/><use x="203.035" y="79.124" href="#s1"/><use x="211.246" y="79.124" href="#s1"/><use x="244.09" y="79.124" href="#s0"/><use x="252.301" y="79.124" href="#s1"/><use x="227.668" y="96.292" href="#s1"/><use x="235.879" y="96.292" href="#s1"/><use x="219.457" y="199.303" href="#s12"/><use x="211.246" y="216.471" href="#s12"/><use x="400.099" y="216.471" href="#s12"/><use x="391.888" y="250.808" href="#s12"/><use x="383.677" y="267.976" href="#s12"/><use x="400.099" y="267.976" href="#s12"/><use x="391.888" y="285.145" href="#s12"/><use x="400.099" y="302.313" href="#s12"/></g><g fill="#ccc"><use x="211.246" y="44.787" href="#s3"/><use x="219.457" y="61.955" href="#s3"/><use x="219.457" y="79.124" href="#s6"/><use x="227.668" y="79.124" href="#s7"/><use x="235.879" y="79.124" href="#s8"/><use x="178.402" y="96.292" href="#s6"/><use x="186.613" y="96.292" href="#s6"/><use x="194.824" y="96.292" href="#s6"/><use x="203.035" y="96.292" href="#s6"/><use x="211.246" y="96.292" href="#s9"/><use x="129.136" y="113.46" href="#s6"/><use x="137.347" y="113.46" href="#s6"/><use x="145.558" y="113.46" href="#s6"/><use x="153.769" y="113.46" href="#s6"/><use x="161.98" y="113.46" href="#s6"/><use x="170.191" y="113.46" href="#s9"/><use x="112.714" y="130.629" href="#s7"/><use x="120.925" y="130.629" href="#s8"/><use x="129.136" y="147.797" href="#s3"/><use x="137.347" y="164.966" href="#s3"/><use x="194.824" y="164.966" href="#s6"/><use x="203.035" y="164.966" href="#s6"/><use x="211.246" y="164.966" href="#s6"/><use x="219.457" y="164.966" href="#s6"/><use x="145.558" y="182.134" href="#s3"/><use x="153.769" y="182.134" href="#s6"/><use x="161.98" y="182.134" href="#s6"/><use x="170.191" y="182.134" href="#s6"/><use x="178.402" y="182.134" href="#s6"/><use x="186.613" y="182.134" href="#s9"/><use x="227.668" y="182.134" href="#s3"/><use x="129.136" y="199.303" href="#s6"/><use x="137.347" y="199.303" href="#s6"/><use x="145.558" y="199.303" href="#s9"/><use x="153.769" y="199.303" href="#s3"/><use x="235.879" y="199.303" href="#s7"/><use x="244.09" y="199.303" href="#s8"/><use x="79.87" y="216.471" href="#s6"/><use x="88.081" y="216.471" href="#s6"/><use x="96.292" y="216.471" href="#s6"/><use x="104.503" y="216.471" href="#s6"/><use x="112.714" y="216.471" href="#s6"/><use x="120.925" y="216.471" href="#s9"/><use x="161.98" y="216.471" href="#s3"/><use x="252.301" y="216.471" href="#s3"/><use x="71.659" y="233.64" href="#s9"/><use x="170.191" y="233.64" href="#s3"/><use x="260.512" y="233.64" href="#s3"/><use x="268.723" y="233.64" href="#s6"/><use x="276.934" y="233.64" href="#s6"/><use x="285.145" y="233.64" href="#s6"/><use x="293.356" y="233.64" href="#s6"/><use x="301.567" y="233.64" href="#s6"/><use x="309.778" y="233.64" href="#s6"/><use x="317.989" y="233.64" href="#s6"/><use x="55.237" y="250.808" href="#s7"/><use x="63.448" y="250.808" href="#s8"/><use x="178.402" y="250.808" href="#s3"/><use x="326.2" y="250.808" href="#s3"/><use x="63.448" y="267.976" href="#s3"/><use x="186.613" y="267.976" href="#s3"/><use x="334.411" y="267.976" href="#s3"/><use x="71.659" y="285.145" href="#s3"/><use x="194.824" y="285.145" href="#s3"/><use x="342.622" y="285.145" href="#s7"/><use x="350.833" y="285.145" href="#s8"/><use x="79.87" y="302.313" href="#s3"/><use x="203.035" y="302.313" href="#s3"/><use x="326.2" y="302.313" href="#s6"/><use x="334.411" y="302.313" href="#s9"/><use x="88.081" y="319.482" href="#s3"/><use x="203.035" y="319.482" href="#s7"/><use x="211.246" y="319.482" href="#s8"/><use x="317.989" y="319.482" href="#s9"/><use x="96.292" y="336.65" href="#s3"/><use x="219.457" y="336.65" href="#s3"/><use x="227.668" y="336.65" href="#s6"/><use x="235.879" y="336.65" href="#s6"/><use x="309.778" y="336.65" href="#s9"/><use x="104.503" y="353.819" href="#s7"/><use x="112.714" y="353.819" href="#s8"/><use x="244.09" y="353.819" href="#s3"/><use x="252.301" y="353.819" href="#s6"/><use x="260.512" y="353.819" href="#s6"/><use x="301.567" y="353.819" href="#s9"/><use x="120.925" y="370.987" href="#s3"/><use x="129.136" y="370.987" href="#s6"/><use x="137.347" y="370.987" href="#s6"/><use x="145.558" y="370.987" href="#s6"/><use x="153.769" y="370.987" href="#s6"/><use x="161.98" y="370.987" href="#s6"/><use x="170.191" y="370.987" href="#s6"/><use x="268.723" y="370.987" href="#s3"/><use x="276.934" y="370.987" href="#s6"/><use x="285.145" y="370.987" href="#s6"/><use x="293.356" y="370.987" href="#s9"/><use x="178.402" y="388.156" href="#s3"/><use x="186.613" y="388.156" href="#s6"/><use x="194.824" y="388.156" href="#s6"/><use x="203.035" y="388.156" href="#s6"/><use x="211.246" y="388.156" href="#s6"/><use x="219.457" y="388.156" href="#s6"/><use x="227.668" y="388.156" href="#s6"/><use x="235.879" y="405.324" href="#s3"/><use x="244.09" y="405.324" href="#s6"/><use x="252.301" y="405.324" href="#s6"/><use x="260.512" y="405.324" href="#s6"/><use x="268.723" y="405.324" href="#s6"/><use x="276.934" y="422.492" href="#s3"/><use x="285.145" y="422.492" href="#s6"/><use x="293.356" y="422.492" href="#s6"/><use x="301.567" y="422.492" href="#s6"/><use x="309.778" y="439.661" href="#s7"/><use x="317.989" y="439.661" href="#s8"/></g><g fill="#339"><use x="260.512" y="44.787" href="#s4"/><use x="276.934" y="44.787" href="#s4"/><use x="38.815" y="61.955" href="#s4"/><use x="55.237" y="61.955" href="#s4"/><use x="71.659" y="61.955" href="#s4"/><use x="88.081" y="61.955" href="#s4"/><use x="112.714" y="61.955" href="#s4"/><use x="285.145" y="61.955" href="#s4"/><use x="301.567" y="61.955" href="#s4"/><use x="334.411" y="61.955" href="#s4"/><use x="359.044" y="61.955" href="#s4"/><use x="14.182" y="79.124" href="#s4"/><use x="47.026" y="79.124" href="#s4"/><use x="71.659" y="79.124" href="#s4"/><use x="104.503" y="79.124" href="#s4"/><use x="120.925" y="79.124" href="#s4"/><use x="145.558" y="79.124" href="#s4"/><use x="276.934" y="79.124" href="#s4"/><use x="317.989" y="79.124" href="#s4"/><use x="350.833" y="79.124" href="#s4"/><use x="367.255" y="79.124" href="#s4"/><use x="391.888" y="79.124" href="#s4"/><use x="5.971" y="96.292" href="#s4"/><use x="38.815" y="96.292" href="#s4"/><use x="55.237" y="96.292" href="#s4"/><use x="112.714" y="96.292" href="#s4"/><use x="137.347" y="96.292" href="#s4"/><use x="161.98" y="96.292" href="#s4"/><use x="260.512" y="96.292" href="#s4"/><use x="285.145" y="96.292" href="#s4"/><use x="309.778" y="96.292" href="#s4"/><use x="334.411" y="96.292" href="#s4"/><use x="359.044" y="96.292" href="#s4"/><use x="400.099" y="96.292" href="#s4"/><use x="22.393" y="113.46" href="#s4"/><use x="63.448" y="113.46" href="#s4"/><use x="186.613" y="113.46" href="#s4"/><use x="219.457" y="113.46" href="#s4"/><use x="244.09" y="113.46" href="#s4"/><use x="268.723" y="113.46" href="#s4"/><use x="326.2" y="113.46" href="#s4"/><use x="14.182" y="130.629" href="#s4"/><use x="38.815" y="130.629" href="#s4"/><use x="55.237" y="130.629" href="#s4"/><use x="88.081" y="130.629" href="#s4"/><use x="170.191" y="130.629" href="#s4"/><use x="203.035" y="130.629" href="#s4"/><use x="260.512" y="130.629" href="#s4"/><use x="391.888" y="130.629" href="#s4"/><use x="63.448" y="147.797" href="#s4"/><use x="145.558" y="147.797" href="#s4"/><use x="219.457" y="147.797" href="#s4"/><use x="244.09" y="147.797" href="#s4"/><use x="276.934" y="147.797" href="#s4"/><use x="301.567" y="147.797" href="#s4"/><use x="359.044" y="147.797" href="#s4"/><use x="400.099" y="147.797" href="#s4"/><use x="14.182" y="164.966" href="#s4"/><use x="47.026" y="164.966" href="#s4"/><use x="104.503" y="164.966" href="#s4"/><use x="161.98" y="164.966" href="#s4"/><use x="268.723" y="164.966" href="#s4"/><use x="326.2" y="164.966" href="#s4"/><use x="383.677" y="164.966" href="#s4"/><use x="63.448" y="182.134" href="#s4"/><use x="129.136" y="182.134" href="#s4"/><use x="293.356" y="182.134" href="#s4"/><use x="359.044" y="182.134" href="#s4"/><use x="38.815" y="199.303" href="#s4"/><use x="104.503" y="199.303" href="#s4"/><use x="170.191" y="199.303" href="#s4"/><use x="317.989" y="199.303" href="#s4"/><use x="342.622" y="199.303" href="#s4"/><use x="71.659" y="216.471" href="#s4"/><use x="129.136" y="216.471" href="#s4"/><use x="276.934" y="216.471" href="#s4"/><use x="104.503" y="233.64" href="#s4"/><use x="161.98" y="233.64" href="#s4"/><use x="326.2" y="233.64" href="#s4"/><use x="194.824" y="250.808" href="#s4"/><use x="260.512" y="250.808" href="#s4"/><use x="293.356" y="250.808" href="#s4"/><use x="120.925" y="267.976" href="#s4"/><use x="161.98" y="267.976" href="#s4"/><use x="219.457" y="267.976" href="#s4"/><use x="293.356" y="285.145" href="#s4"/><use x="178.402" y="302.313" href="#s4"/><use x="260.512" y="302.313" href="#s4"/><use x="145.558" y="319.482" href="#s4"/><use x="334.411" y="319.482" href="#s4"/><use x="260.512" y="336.65" href="#s4"/><use x="170.191" y="353.819" href="#s4"/><use x="219.457" y="353.819" href="#s4"/><use x="309.778" y="353.819" href="#s4"/><use x="367.255" y="353.819" href="#s4"/><use x="137.347" y="388.156" href="#s4"/><use x="268.723" y="388.156" href="#s4"/><use x="350.833" y="388.156" href="#s4"/><use x="391.888" y="388.156" href="#s4"/><use x="178.402" y="405.324" href="#s4"/><use x="227.668" y="405.324" href="#s4"/><use x="96.292" y="422.492" href="#s4"/><use x="400.099" y="422.492" href="#s4"/><use x="47.026" y="439.661" href="#s4"/><use x="137.347" y="439.661" href="#s4"/><use x="211.246" y="439.661" href="#s4"/><use x="367.255" y="439.661" href="#s4"/></g><g fill="#90f"><use x="309.778" y="113.46" href="#s6"/><use x="342.622" y="113.46" href="#s6"/><use x="375.466" y="113.46" href="#s10"/><use x="383.677" y="113.46" href="#s11"/><use x="285.145" y="130.629" href="#s3"/><use x="301.567" y="130.629" href="#s9"/><use x="317.989" y="130.629" href="#s3"/><use x="334.411" y="130.629" href="#s9"/><use x="350.833" y="130.629" href="#s3"/><use x="367.255" y="130.629" href="#s9"/></g><g fill="#fc9"><use x="30.604" y="319.482" href="#s4"/><use x="47.026" y="319.482" href="#s4"/><use x="5.971" y="336.65" href="#s4"/><use x="22.393" y="336.65" href="#s4"/><use x="38.815" y="336.65" href="#s4"/><use x="55.237" y="336.65" href="#s4"/><use x="14.182" y="353.819" href="#s4"/><use x="30.604" y="353.819" href="#s4"/><use x="47.026" y="353.819" href="#s4"/><use x="63.448" y="353.819" href="#s4"/><use x="79.87" y="353.819" href="#s4"/><use x="5.971" y="370.987" href="#s4"/><use x="22.393" y="370.987" href="#s4"/><use x="38.815" y="370.987" href="#s4"/><use x="55.237" y="370.987" href="#s4"/><use x="71.659" y="370.987" href="#s4"/><use x="14.182" y="388.156" href="#s4"/><use x="30.604" y="388.156" href="#s4"/><use x="47.026" y="388.156" href="#s4"/></g><g fill="#0c0"><use x="79.87" y="96.292" href="#s0"/><use x="88.081" y="96.292" href="#s1"/><use x="96.292" y="96.292" href="#s0"/><use x="79.87" y="113.46" href="#s1"/><use x="88.081" y="113.46" href="#s1"/><use x="112.714" y="113.46" href="#s0"/><use x="120.925" y="113.46" href="#s0"/><use x="104.503" y="130.629" href="#s5"/><use x="129.136" y="130.629" href="#s1"/><use x="137.347" y="130.629" href="#s0"/><use x="112.714" y="147.797" href="#s1"/><use x="120.925" y="147.797" href="#s0"/><use x="203.035" y="182.134" href="#s0"/><use x="211.246" y="182.134" href="#s1"/><use x="219.457" y="182.134" href="#s1"/><use x="235.879" y="182.134" href="#s1"/><use x="244.09" y="182.134" href="#s0"/><use x="252.301" y="182.134" href="#s0"/><use x="400.099" y="182.134" href="#s0"/><use x="203.035" y="199.303" href="#s0"/><use x="211.246" y="199.303" href="#s1"/><use x="252.301" y="199.303" href="#s0"/><use x="260.512" y="199.303" href="#s1"/><use x="367.255" y="199.303" href="#s0"/><use x="375.466" y="199.303" href="#s0"/><use x="383.677" y="199.303" href="#s1"/><use x="391.888" y="199.303" href="#s1"/><use x="5.971" y="216.471" href="#s0"/><use x="14.182" y="216.471" href="#s0"/><use x="22.393" y="216.471" href="#s0"/><use x="203.035" y="216.471" href="#s5"/><use x="227.668" y="216.471" href="#s13"/><use x="244.09" y="216.471" href="#s5"/><use x="342.622" y="216.471" href="#s5"/><use x="350.833" y="216.471" href="#s1"/><use x="359.044" y="216.471" href="#s1"/><use x="383.677" y="216.471" href="#s13"/><use x="5.971" y="233.64" href="#s14"/><use x="14.182" y="233.64" href="#s14"/><use x="22.393" y="233.64" href="#s14"/><use x="30.604" y="233.64" href="#s5"/><use x="47.026" y="233.64" href="#s0"/><use x="55.237" y="233.64" href="#s0"/><use x="63.448" y="233.64" href="#s0"/><use x="211.246" y="233.64" href="#s1"/><use x="219.457" y="233.64" href="#s0"/><use x="227.668" y="233.64" href="#s0"/><use x="235.879" y="233.64" href="#s1"/><use x="342.622" y="233.64" href="#s1"/><use x="350.833" y="233.64" href="#s0"/><use x="367.255" y="233.64" href="#s13"/><use x="5.971" y="250.808" href="#s0"/><use x="14.182" y="250.808" href="#s1"/><use x="22.393" y="250.808" href="#s1"/><use x="38.815" y="250.808" href="#s0"/><use x="47.026" y="250.808" href="#s1"/><use x="71.659" y="250.808" href="#s1"/><use x="79.87" y="250.808" href="#s0"/><use x="350.833" y="250.808" href="#s5"/><use x="375.466" y="250.808" href="#s13"/><use x="5.971" y="267.976" href="#s1"/><use x="14.182" y="267.976" href="#s0"/><use x="22.393" y="267.976" href="#s0"/><use x="30.604" y="267.976" href="#s0"/><use x="38.815" y="267.976" href="#s1"/><use x="47.026" y="267.976" href="#s14"/><use x="55.237" y="267.976" href="#s14"/><use x="71.659" y="267.976" href="#s14"/><use x="79.87" y="267.976" href="#s14"/><use x="88.081" y="267.976" href="#s1"/><use x="96.292" y="267.976" href="#s0"/><use x="326.2" y="267.976" href="#s0"/><use x="342.622" y="267.976" href="#s1"/><use x="359.044" y="267.976" href="#s13"/><use x="5.971" y="285.145" href="#s14"/><use x="14.182" y="285.145" href="#s14"/><use x="22.393" y="285.145" href="#s14"/><use x="30.604" y="285.145" href="#s14"/><use x="38.815" y="285.145" href="#s14"/><use x="55.237" y="285.145" href="#s13"/><use x="63.448" y="285.145" href="#s14"/><use x="79.87" y="285.145" href="#s14"/><use x="88.081" y="285.145" href="#s0"/><use x="96.292" y="285.145" href="#s1"/><use x="227.668" y="285.145" href="#s0"/><use x="326.2" y="285.145" href="#s1"/><use x="334.411" y="285.145" href="#s0"/><use x="375.466" y="285.145" href="#s13"/><use x="5.971" y="302.313" href="#s14"/><use x="14.182" y="302.313" href="#s13"/><use x="71.659" y="302.313" href="#s13"/><use x="88.081" y="302.313" href="#s1"/><use x="96.292" y="302.313" href="#s0"/><use x="211.246" y="302.313" href="#s1"/><use x="219.457" y="302.313" href="#s1"/><use x="227.668" y="302.313" href="#s13"/><use x="235.879" y="302.313" href="#s5"/><use x="342.622" y="302.313" href="#s1"/><use x="350.833" y="302.313" href="#s0"/><use x="359.044" y="302.313" href="#s0"/><use x="383.677" y="302.313" href="#s13"/><use x="79.87" y="319.482" href="#s13"/><use x="96.292" y="319.482" href="#s13"/><use x="104.503" y="319.482" href="#s1"/><use x="112.714" y="319.482" href="#s0"/><use x="194.824" y="319.482" href="#s5"/><use x="219.457" y="319.482" href="#s0"/><use x="227.668" y="319.482" href="#s0"/><use x="235.879" y="319.482" href="#s1"/><use x="367.255" y="319.482" href="#s1"/><use x="375.466" y="319.482" href="#s1"/><use x="383.677" y="319.482" href="#s0"/><use x="391.888" y="319.482" href="#s0"/><use x="400.099" y="319.482" href="#s0"/><use x="104.503" y="336.65" href="#s13"/><use x="120.925" y="336.65" href="#s5"/><use x="203.035" y="336.65" href="#s1"/><use x="211.246" y="336.65" href="#s1"/><use x="96.292" y="353.819" href="#s13"/><use x="120.925" y="353.819" href="#s5"/><use x="96.292" y="370.987" href="#s13"/><use x="112.714" y="370.987" href="#s0"/><use x="88.081" y="388.156" href="#s0"/><use x="96.292" y="388.156" href="#s0"/><use x="104.503" y="388.156" href="#s1"/><use x="22.393" y="405.324" href="#s0"/><use x="30.604" y="405.324" href="#s0"/><use x="38.815" y="405.324" href="#s0"/><use x="47.026" y="405.324" href="#s0"/><use x="55.237" y="405.324" href="#s0"/><use x="63.448" y="405.324" href="#s1"/><use x="71.659" y="405.324" href="#s1"/><use x="79.87" y="405.324" href="#s1"/><use x="5.971" y="422.492" href="#s1"/><use x="14.182" y="422.492" href="#s1"/><use x="244.09" y="422.492" href="#s0"/><use x="252.301" y="422.492" href="#s1"/><use x="260.512" y="422.492" href="#s0"/><use x="268.723" y="422.492" href="#s0"/><use x="309.778" y="422.492" href="#s1"/><use x="317.989" y="422.492" href="#s1"/><use x="326.2" y="422.492" href="#s0"/><use x="334.411" y="422.492" href="#s0"/><use x="252.301" y="439.661" href="#s1"/><use x="260.512" y="439.661" href="#s0"/><use x="268.723" y="439.661" href="#s1"/><use x="293.356" y="439.661" href="#s5"/><use x="334.411" y="439.661" href="#s0"/><use x="342.622" y="439.661" href="#s1"/></g><use x="203.035" y="27.618" fill="red" href="#s15"/><use x="204.714" y="16.832" fill="#ff6" href="#s16" style="filter:drop-shadow(0 0 2.5pt rgba(255,255,102,.5)) drop-shadow(0 0 1.5pt #ff6) drop-shadow(0 0 1pt rgba(255,255,102,.5));transform-origin:top center;transform:scale(1.35)translate(.1pt,-3pt)"/></svg>