<?xml version="1.0" standalone="no"?>
<!DOCTYPE svg PUBLIC "-//W3C//DTD SVG 20010904//EN"
 "http://www.w3.org/TR/2001/REC-SVG-20010904/DTD/svg10.dtd">
<svg version="1.0" xmlns="http://www.w3.org/2000/svg"
 width="337.000000pt" height="337.000000pt" viewBox="0 0 337.000000 337.000000"
 preserveAspectRatio="xMidYMid meet">
<metadata>
Created by potrace 1.14, written by Peter Selinger 2001-2017
</metadata>
<g transform="translate(0.000000,337.000000) scale(0.100000,-0.100000)"
fill="#000000" stroke="none">
<path d="M1625 3359 c-74 -18 -128 -67 -174 -157 -15 -29 -29 -44 -49 -48 -55
-12 -68 -17 -108 -45 -130 -89 -151 -270 -46 -391 l31 -34 -103 -145 c-56 -79
-105 -151 -108 -160 -3 -9 -37 -60 -76 -115 -38 -54 -77 -113 -86 -131 -28
-56 -38 -126 -27 -187 l10 -56 -59 -84 c-33 -46 -60 -86 -60 -89 0 -4 -18 -33
-39 -67 -66 -101 -77 -204 -32 -304 l19 -44 -100 -139 c-54 -76 -111 -160
-125 -187 -32 -64 -39 -135 -19 -210 11 -44 12 -64 4 -73 -16 -19 -45 -70 -75
-133 -31 -63 -41 -161 -24 -227 6 -23 29 -68 52 -102 33 -50 51 -66 104 -92
52 -25 76 -31 132 -31 82 -1 137 24 255 113 43 33 79 59 81 59 2 0 20 -24 41
-54 42 -61 111 -104 184 -114 l47 -7 3 -53 3 -52 410 0 409 0 0 50 c0 46 2 50
28 56 111 24 155 52 222 143 l25 33 88 -66 c117 -88 165 -109 248 -108 87 0
157 30 209 89 56 64 84 127 88 201 5 78 -11 137 -57 210 -59 93 -63 104 -52
136 18 46 13 175 -8 221 -10 22 -60 99 -111 170 -51 72 -99 139 -106 151 -12
18 -11 26 7 64 25 51 29 154 10 215 -8 22 -31 66 -52 97 -22 32 -39 61 -39 64
0 4 -25 42 -55 86 l-56 79 10 55 c12 61 2 134 -25 186 -9 18 -50 80 -91 137
-41 56 -77 110 -81 119 -3 10 -50 79 -104 155 l-98 138 34 42 c45 55 66 109
66 167 0 125 -81 226 -208 260 -36 9 -45 18 -67 60 -30 59 -86 117 -130 136
-45 18 -123 25 -170 13z m148 -314 l46 -93 53 -6 c29 -3 67 -7 83 -8 26 -3 30
-7 33 -38 2 -30 -3 -41 -43 -80 l-45 -44 0 -108 c0 -95 -2 -110 -20 -128 -11
-11 -28 -20 -38 -20 -10 0 -48 31 -86 69 l-69 69 -49 -56 c-69 -79 -91 -91
-126 -72 -27 16 -27 17 -30 131 l-3 115 -49 49 c-82 80 -67 113 55 122 l76 6
49 98 c27 53 55 99 62 102 30 10 56 -19 101 -108z m-262 -1171 c70 -35 98
-137 60 -211 -27 -55 -75 -83 -138 -83 -42 0 -55 5 -91 36 -73 62 -80 151 -19
221 55 63 116 75 188 37z m506 -209 c109 -65 109 -215 0 -280 -54 -31 -80 -31
-137 -2 -61 30 -90 76 -90 142 0 66 29 112 90 143 57 28 83 28 137 -3z m-707
-420 c52 -27 70 -65 70 -145 0 -68 -2 -74 -33 -105 -44 -44 -104 -62 -156 -47
-136 41 -164 208 -48 290 38 26 122 30 167 7z"/>
</g>
</svg>
