<svg version="1" xmlns="http://www.w3.org/2000/svg" width="810.667" height="810.667" viewBox="0 0 608.000000 608.000000"><path d="M288.1 48c-7.7 3.7-13.3 9.4-19.5 19.9-4.6 7.8-4.6 7.8-9.4 8.3-4.4.5-7.9 1.8-14.4 5.3-3.9 2.3-12 11.5-14.8 17.1-2.1 4.3-2.4 6.3-2.5 15.9 0 10.7.1 11.2 3.4 17 1.8 3.3 4.9 7.7 6.7 9.8 1.9 2 3.4 4.1 3.4 4.7 0 .5-1.3 2.5-3 4.3-1.6 1.9-3 3.9-3 4.5 0 .6-.4 1.2-.8 1.4-.8.3-4.3 5-13 17.7-2 3-4.1 6.1-4.7 7-.5.9-2.2 3.1-3.7 4.9-1.6 1.8-2.8 3.6-2.8 4 0 .5-.8 1.7-1.8 2.8-1 1-4.6 5.9-8 10.9-3.4 4.9-8 11.5-10.1 14.6-8.8 12.5-12 26.9-8.8 38.9.9 3 1.2 5.7.8 6-.7.5-13.6 18.5-15.6 21.8-.5 1-1.2 1.9-1.5 2.2-2.1 1.9-10.4 15-11.6 18.4-5.4 14.3-5.5 22.3-.6 35l3.1 7.8-2.5 3.7c-1.3 2-3.4 5-4.6 6.7-1.3 1.7-4.3 6-6.8 9.4-2.5 3.5-5.8 8.2-7.5 10.5-10.3 14.2-12.2 17.7-15.2 28-1.8 6.3-1.2 17.3 1.5 23.9l1.9 4.9-5.6 7.6c-10.6 14.4-13.6 22.2-13.6 35.6 0 19 10.4 34.6 28.2 42.5 7.2 3.1 8.6 3.4 17.8 3.4 9 0 10.7-.3 17.1-3.1 7.6-3.3 13.8-7.3 25.2-16.5 4-3.2 7.7-5.8 8.1-5.8.5 0 1.6 1.5 2.5 3.2 1.7 3.6 8.4 10.8 13.6 14.7 3.9 3 18.2 8 22.8 8.1h3.2v15h125v-15h2.8c1.5-.1 5.2-1 8.2-2.1 3-1.1 6.4-2.3 7.5-2.6 5.6-1.7 15-10.2 20.4-18.4 2.7-4 2-4.2 10 2.7 5.5 4.7 21.3 15.4 22.9 15.4.7 0 3.2 1 5.4 2.1 2.9 1.5 6.8 2.3 12.3 2.6 6.9.5 9.1.2 16-2.2 8.5-2.9 12.3-5.3 19.3-11.9 5.1-4.8 10.8-14.5 11.9-20.1 1-5.1 1-19.9 0-25-.9-4.9-5.9-13.9-12.7-22.9l-5.2-6.9 2.1-7.1c4.4-14.9 1.8-27.5-8.6-42.2-2.7-3.6-7.1-10-10-14.1-2.8-4.2-6-8.5-7-9.7-1-1.3-2.2-2.9-2.8-3.8-.5-.8-2.5-3.6-4.2-6.3-2-3-2.9-5.3-2.4-5.9.5-.6 2.1-4.7 3.6-9.1 2.3-6.8 2.7-9.1 2.3-16-.7-11.5-3.5-17.5-16.6-36-1.5-2.2-4.6-6.5-6.7-9.5-2.1-3-4.1-5.7-4.4-6-.3-.3-1.8-2.3-3.2-4.5-2.5-3.8-2.5-4.2-1.2-8 2.2-6.1 1.3-20.7-1.5-26.7-1.2-2.6-2.2-4.9-2.2-5.2 0-.6-7.2-11.2-14.9-22.1-2.8-3.9-6.6-9.3-8.6-12-1.9-2.8-5.3-7.5-7.5-10.5s-5.1-7.1-6.5-9c-8.9-12.8-10.9-15.5-11.7-15.8-.4-.2-.8-.8-.8-1.4 0-.6-1.3-2.6-3-4.5-3.5-4-3.6-4.3-1.1-6.9 1-1.1 3.8-4.8 6.3-8.1 5.8-7.8 7.8-17.5 5.8-27.5-1.6-8.3-6.4-17.2-12.2-22.5-3.9-3.6-15.7-9.3-19.3-9.3-4 0-6.5-.9-6.5-2.2 0-.6-2.1-4.4-4.6-8.4-5.2-8.4-11.2-14.1-18.7-17.9-4.4-2.2-6.4-2.5-15.1-2.5-9.1 0-10.7.3-16.5 3zm19.4 29.2c1.9.8 4.4 4.9 9.8 15.5l7.2 14.3h10.1c8.7 0 10.5.3 12.8 2.1 1.8 1.4 2.6 3 2.6 5.3 0 2.7-1.3 4.5-7.5 10.9l-7.5 7.6v15.3c-.1 16-.4 17.4-4.7 19.6-3.5 1.9-7-.1-17.1-10.1l-9.3-9.2-9 9.3c-10 10.3-12.7 11.9-16.7 10-4.5-2.2-5.1-4.7-4.4-20l.5-14-7.5-7.6c-8.2-8.3-9.4-10.5-7.9-14.4 1.3-3.5 5.7-4.8 16.2-4.8h8.8l7.3-14.3c8.3-16.2 10.4-18.2 16.3-15.5zm43.8 217.4c11.9 4 18.1 20.1 12.2 31.4-1.9 3.6-8.5 9.7-12 11-3.8 1.5-13.1 1.5-16.8.1-5.2-2-9.6-6.2-12.2-11.6-8.9-18.9 8.6-37.8 28.8-30.9zm-109.2 61.5c7.8 2.6 12.9 8.4 14.9 17 2.4 9.8-4 21.8-13.5 25.5-3.1 1.1-6.4 1.5-10.8 1.2-7.7-.5-13.2-3.6-17.4-10-2.5-3.7-2.8-5.1-2.8-12.3 0-7.5.2-8.5 3-12.1 3.7-4.9 5-6 10-8.4 4.5-2.2 11.5-2.6 16.6-.9z"/></svg>